<?xml version="1.0" encoding="UTF-8"?>
<svg version="1.1" xmlns="http://www.w3.org/2000/svg" width="1024" height="1024">
<path d="M0 0 C337.92 0 675.84 0 1024 0 C1024 337.92 1024 675.84 1024 1024 C686.08 1024 348.16 1024 0 1024 C0 686.08 0 348.16 0 0 Z " fill="#FDF7F2" transform="translate(0,0)"/>
<path d="M0 0 C6.67777391 -0.47416146 13.04539698 0.39045009 19.625 1.5 C20.63973389 1.67088135 21.65446777 1.8417627 22.69995117 2.01782227 C31.66778446 3.6142996 40.48877053 5.69507255 49.3125 7.9375 C49.96526917 8.10040527 50.61803833 8.26331055 51.29058838 8.43115234 C59.65766638 10.5345915 67.25732551 13.21837958 75 17 C76.5884714 17.70785526 78.17955139 18.40989162 79.7734375 19.10546875 C94.06129786 25.50285899 106.45742023 33.17792899 116 46 C116 46.66 116 47.32 116 48 C116.8765625 47.566875 117.753125 47.13375 118.65625 46.6875 C132.50961891 40.40153619 148.62285662 39.48805986 163.3125 43.625 C165.23259529 44.35585855 167.13158205 45.14563795 169 46 C169.94617188 46.42410156 170.89234375 46.84820312 171.8671875 47.28515625 C185.98892369 54.30690596 195.82088527 66.1499317 201 81 C203.26721849 88.14295718 203.29906421 94.91724037 203.25 102.375 C203.25773437 103.54289062 203.26546875 104.71078125 203.2734375 105.9140625 C203.23350957 123.72191789 197.25524175 138.51386012 189 154 C188.45472656 155.03125 187.90945313 156.0625 187.34765625 157.125 C179.77122192 170.75887694 169.81383898 182.82829296 159 194 C158.09378906 194.94617188 157.18757813 195.89234375 156.25390625 196.8671875 C150.6882297 202.56707185 144.91795813 207.79279452 138.64501953 212.70117188 C136.80839732 214.15128024 134.99684327 215.6301569 133.18359375 217.109375 C112.52056823 233.78395606 88.7331155 249.96748756 63.59765625 258.97265625 C58.74901917 260.85697898 56.81079477 262.90655885 53.875 267.1875 C53.04850048 268.35234317 52.21904634 269.51509531 51.38671875 270.67578125 C50.98759277 271.24248535 50.5884668 271.80918945 50.17724609 272.39306641 C47.92145084 275.4722129 45.29273008 278.21583853 42.71484375 281.0234375 C41.18362705 282.78834786 39.98185151 284.52362285 38.75 286.5 C26.9880428 303.0200305 1.77063474 309.1812363 -17.08886719 312.51220703 C-18.04954102 312.67317871 -19.01021484 312.83415039 -20 313 C-20.95293945 313.16226074 -21.90587891 313.32452148 -22.88769531 313.49169922 C-39.67092674 316.17093336 -56.48191944 316.28423758 -73.4375 316.3125 C-74.49610229 316.31617584 -75.55470459 316.31985168 -76.64538574 316.32363892 C-90.87743074 316.34941861 -104.86246816 315.63512052 -119 314 C-119.74789291 313.91547577 -120.49578583 313.83095154 -121.26634216 313.74386597 C-129.44393746 312.81444299 -137.13493298 311.40788816 -145 309 C-146.21171875 308.67386719 -147.4234375 308.34773438 -148.671875 308.01171875 C-166.17846031 303.1602883 -181.26037119 294.62518864 -191.4453125 279.25390625 C-193.34676636 276.4972759 -195.57332233 274.2989578 -198 272 C-221.22651481 245.13321371 -239.4899938 210.11629669 -246.4921875 175.23828125 C-246.78166226 173.04062693 -246.78166226 173.04062693 -248 172 C-248.29579705 170.51730105 -248.5374542 169.02368615 -248.75390625 167.52734375 C-248.88603516 166.62822266 -249.01816406 165.72910156 -249.15429688 164.80273438 C-249.28900391 163.85720703 -249.42371094 162.91167969 -249.5625 161.9375 C-249.70107422 160.98810547 -249.83964844 160.03871094 -249.98242188 159.06054688 C-250.32532186 156.7075435 -250.66433937 154.35404517 -251 152 C-251.66 152 -252.32 152 -253 152 C-255.68009992 140.31367599 -257.52738438 128.68125015 -258.75 116.75 C-258.87737549 115.51354736 -259.00475098 114.27709473 -259.13598633 113.00317383 C-259.72254214 106.97361022 -260.15068923 101.05770695 -260 95 C-259.56429688 95.38671875 -259.12859375 95.7734375 -258.6796875 96.171875 C-255.76455944 98.7210346 -252.91520229 101.13511653 -249.625 103.1875 C-247 105 -247 105 -246 108 C-244.03908595 109.16296634 -242.03036428 109.98728138 -239.9296875 110.8671875 C-236.61855561 112.49127881 -234.44940045 113.77697413 -233.14453125 117.328125 C-232.61877098 120.54559811 -232.31503301 123.75482123 -232 127 C-231.49621096 130.33960017 -230.93166901 133.66885716 -230.375 137 C-230.1077702 138.62431314 -229.84452033 140.24928789 -229.5859375 141.875 C-229.4729834 142.57367188 -229.3600293 143.27234375 -229.24365234 143.9921875 C-229 146 -229 146 -229 150 C-228.34 150 -227.68 150 -227 150 C-226.86424561 150.55349121 -226.72849121 151.10698242 -226.58862305 151.67724609 C-221.95381927 170.68693985 -221.95381927 170.68693985 -215.2265625 189.02734375 C-214.13761841 191.66647258 -213.28141082 194.27646962 -212.4375 197 C-205.92848162 215.20944009 -192.25062996 233.14042565 -179 247 C-178.401875 247.66128906 -177.80375 248.32257813 -177.1875 249.00390625 C-160.7568974 266.53224307 -136.81953796 279.26587505 -113.296875 283.4140625 C-110.73307864 283.86971351 -108.31022968 284.4128374 -105.8125 285.125 C-100.55202433 286.33232228 -95.38190678 286.71880681 -90 287 C-88.54787109 287.09861328 -88.54787109 287.09861328 -87.06640625 287.19921875 C-51.80618325 288.4758061 -16.24704455 275.19040725 9.66943359 251.47216797 C18.62365313 243.11306271 26.22784908 234.20251512 33 224 C33.38462402 223.42233887 33.76924805 222.84467773 34.16552734 222.24951172 C55.76971494 189.24909177 66.75254991 150.91473323 71 112 C70.38294189 112.21615967 69.76588379 112.43231934 69.13012695 112.6550293 C49.00954923 119.65567389 29.153214 124.58634197 8.1875 128.1875 C7.46397339 128.31433167 6.74044678 128.44116333 5.99499512 128.57183838 C-18.17724468 132.771921 -42.31653458 133.37668992 -66.78588867 133.37060547 C-70.11749192 133.37044384 -73.44853981 133.38422101 -76.7800293 133.41162109 C-110.89375035 133.68740396 -143.64708802 130.26465213 -177 123 C-177.9698584 122.79262207 -178.9397168 122.58524414 -179.93896484 122.37158203 C-193.62098809 119.39744449 -207.43674179 115.2816291 -220 109 C-220 108.34 -220 107.68 -220 107 C-220.71929687 106.8865625 -221.43859375 106.773125 -222.1796875 106.65625 C-225.14662944 105.96588124 -227.43461423 104.91512646 -230.125 103.5 C-232.76884242 102.11780882 -235.1635506 100.94548313 -238 100 C-239 99 -240 98 -241 97 C-241.92039062 96.42378906 -242.84078125 95.84757812 -243.7890625 95.25390625 C-249.20978975 91.44884588 -252.97341566 86.18758283 -257 81 C-257.5671875 80.28199219 -258.134375 79.56398438 -258.71875 78.82421875 C-263.17184321 72.5717652 -263.5801553 66.08467064 -262.51953125 58.6171875 C-261.28836874 52.645029 -259.95686675 47.77151579 -256 43 C-255.319375 42.05125 -254.63875 41.1025 -253.9375 40.125 C-248.17507053 33.38438034 -240.42662281 28.54388613 -232 26 C-228.7 29.63 -225.4 33.26 -222 37 C-223.91396541 40.82793083 -224.40422246 41.55684801 -227.6875 43.75 C-233.11350896 47.65395909 -239.66465711 53.15636768 -241 60 C-240.93691381 63.05442309 -240.75975857 66.03449073 -240 69 C-239.34 69.33 -238.68 69.66 -238 70 C-237.525625 71.010625 -237.05125 72.02125 -236.5625 73.0625 C-231.27515783 82.54861389 -219.50761941 86.97754563 -210 91 C-209.29617188 91.31839844 -208.59234375 91.63679688 -207.8671875 91.96484375 C-204.00103621 93.70721238 -200.07332047 94.84717345 -196 96 C-194.66666667 96.66666667 -193.33333333 97.33333333 -192 98 C-176.89079509 102.59853643 -176.89079509 102.59853643 -161.30859375 104.7265625 C-159 105 -159 105 -155.85986328 105.95239258 C-151.8903016 107.0297733 -148.00991615 107.60853907 -143.93359375 108.03515625 C-143.1776442 108.11873886 -142.42169464 108.20232147 -141.64283752 108.28843689 C-140.04890561 108.46346181 -138.45465218 108.63558088 -136.86010742 108.80493164 C-134.46781259 109.05927721 -132.07666771 109.32275861 -129.68554688 109.58789062 C-128.12245528 109.75835847 -126.55930578 109.92829633 -124.99609375 110.09765625 C-124.30285507 110.17371597 -123.60961639 110.2497757 -122.89537048 110.32814026 C-110.65831463 111.61929864 -98.46405616 112.17014577 -86.1640625 112.203125 C-85.43457775 112.20595238 -84.705093 112.20877975 -83.95350266 112.21169281 C-80.08732515 112.22655063 -76.22118361 112.23586253 -72.35498047 112.24023438 C-69.21944427 112.24460097 -66.08418603 112.25844132 -62.94873047 112.28125 C-44.37778961 112.41364133 -26.39275183 111.91866782 -8 109 C-5.65089323 108.65823996 -3.30080577 108.32422679 -0.95033264 107.99201965 C7.59325943 106.7383933 16.07904303 105.09601137 24.55438232 103.45108032 C26.50868863 103.07291276 28.4645336 102.70272412 30.42041016 102.33276367 C37.68934593 100.89189694 44.2146101 98.94292441 51 96 C52.31183506 95.51353244 53.62808811 95.03875038 54.94921875 94.578125 C77.45894039 86.71587841 77.45894039 86.71587841 93.375 70.01953125 C95.09209984 64.47115239 94.94396311 58.96344326 92.4375 53.75 C91.2309375 52.38875 91.2309375 52.38875 90 51 C89.59523438 50.47277344 89.19046875 49.94554687 88.7734375 49.40234375 C80.94058007 40.20816083 67.12121163 34.99448582 56 31 C55.0409375 30.61457031 54.081875 30.22914063 53.09375 29.83203125 C32.97433537 22.04773392 11.26902573 19.66512715 -10 17 C-10.61254883 15.15454102 -10.61254883 15.15454102 -11 13 C-9.19921875 10.52734375 -9.19921875 10.52734375 -6.6875 7.9375 C-4.19427623 5.33468398 -2.00245224 3.00367836 0 0 Z " fill="#6B2A06" transform="translate(588,273)"/>
<path d="M0 0 C3.76692959 0.01068082 7.5333782 0.00007556 11.30029297 -0.01269531 C25.17106317 -0.01953427 38.77474709 0.50680311 52.53857422 2.26074219 C52.16357422 4.19824219 52.16357422 4.19824219 51.53857422 6.26074219 C49.01399405 7.52303227 47.17860883 7.43857133 44.35229492 7.51025391 C43.26547928 7.5405368 42.17866364 7.5708197 41.05891418 7.60202026 C39.27960762 7.64578293 39.27960762 7.64578293 37.46435547 7.69042969 C34.93244281 7.7642511 32.40054213 7.83848436 29.86865234 7.91308594 C25.89387797 8.02522919 21.91916916 8.1340146 17.9440918 8.23486328 C-9.83952508 8.95450968 -37.16010876 11.00493593 -63.27392578 21.19824219 C-64.07983154 21.50979248 -64.8857373 21.82134277 -65.71606445 22.14233398 C-72.11987828 24.77896141 -77.55600662 28.35532302 -82.46142578 33.26074219 C-80.79080078 32.67292969 -80.79080078 32.67292969 -79.08642578 32.07324219 C-59.46108487 25.60234805 -39.2924946 21.35526779 -18.83642578 18.51074219 C-17.59650879 18.33744385 -17.59650879 18.33744385 -16.33154297 18.16064453 C-2.21332166 16.32265404 11.87177277 16.09956664 26.08447266 16.13037109 C29.06141126 16.13578371 32.03820236 16.13036564 35.01513672 16.12402344 C36.92919955 16.12468346 38.84326229 16.12596304 40.75732422 16.12792969 C41.63658569 16.12590546 42.51584717 16.12388123 43.42175293 16.12179565 C48.22839724 16.14000705 52.77930787 16.50483516 57.53857422 17.26074219 C59.15793083 17.37190976 60.7794698 17.45644918 62.40185547 17.50683594 C63.27865967 17.53801514 64.15546387 17.56919434 65.05883789 17.60131836 C65.98027588 17.63330322 66.90171387 17.66528809 67.85107422 17.69824219 C93.16253357 18.77964244 117.37697674 23.55902 141.53857422 31.26074219 C140.54857422 30.33261719 140.54857422 30.33261719 139.53857422 29.38574219 C137.53857422 27.26074219 137.53857422 27.26074219 137.53857422 25.26074219 C148.33702028 26.32288442 158.15480235 32.39992888 165.53857422 40.26074219 C167.20044886 43.58449147 167.24429247 46.69434461 166.53857422 50.26074219 C161.780976 59.88744483 149.17236798 64.30479141 139.64404297 67.69824219 C135.64872524 69.03407814 131.60556147 70.16603175 127.53857422 71.26074219 C126.78624512 71.46795898 126.03391602 71.67517578 125.25878906 71.88867188 C108.75856149 76.39276042 91.67462317 80.20999516 74.55029297 81.08496094 C72.46834281 81.14266669 72.46834281 81.14266669 70.53857422 82.26074219 C67.93320657 82.50018642 65.35335958 82.67602443 62.74169922 82.80371094 C61.91140198 82.84513718 61.08110474 82.88656342 60.22564697 82.929245 C47.58774232 83.49942374 34.93728651 83.54846038 22.28857422 83.57324219 C21.29550011 83.57563086 21.29550011 83.57563086 20.28236389 83.57806778 C0.05444371 83.61929451 -19.54303661 83.03185363 -39.46142578 79.26074219 C-41.04577072 78.98303818 -42.63038039 78.70683736 -44.21533203 78.43261719 C-46.75552233 77.98107362 -49.27945686 77.4949138 -51.80908203 76.98339844 C-57.0280018 75.95077795 -62.2752622 75.10905733 -67.52709961 74.26245117 C-70.88043992 73.7162074 -74.1740475 73.11669763 -77.46142578 72.26074219 C-77.46142578 71.60074219 -77.46142578 70.94074219 -77.46142578 70.26074219 C-78.78142578 69.93074219 -80.10142578 69.60074219 -81.46142578 69.26074219 C-78.18433715 65.59040292 -74.7462037 63.5679303 -70.46142578 61.26074219 C-71.62875474 59.88996718 -71.62875474 59.88996718 -74.83642578 59.82324219 C-78.46142578 59.26074219 -78.46142578 59.26074219 -81.46142578 57.26074219 C-82.69892578 57.05449219 -83.93642578 56.84824219 -85.21142578 56.63574219 C-89.94734003 55.65428627 -93.95473878 53.7324796 -98.21142578 51.51074219 C-98.84918945 51.1876709 -99.48695313 50.86459961 -100.14404297 50.53173828 C-104.67243808 48.08963102 -107.4918027 45.48248246 -110.46142578 41.26074219 C-111.40443981 36.38850302 -111.40443981 36.38850302 -110.46142578 33.26074219 C-108.90402428 30.98867103 -107.21796281 29.08079234 -105.28564453 27.12011719 C-103.13830184 25.01319813 -103.13830184 25.01319813 -100.46142578 21.26074219 C-103.76142578 21.92074219 -107.06142578 22.58074219 -110.46142578 23.26074219 C-109.46142578 20.26074219 -109.46142578 20.26074219 -106.98876953 18.71777344 C-87.27644956 9.68742882 -64.61011421 4.88075943 -43.12451172 2.57714844 C-41.17955752 2.34606477 -39.24027654 2.06572114 -37.30615234 1.75683594 C-24.8980964 -0.10387758 -12.52677145 -0.04218314 0 0 Z " fill="#A64B0E" transform="translate(495.46142578125,295.7392578125)"/>
<path d="M0 0 C2.32048151 2.27764185 4.52369154 4.63558695 6.6875 7.0625 C7.62142578 8.10083984 7.62142578 8.10083984 8.57421875 9.16015625 C10 11 10 11 10 13 C10.5775 13.20625 11.155 13.4125 11.75 13.625 C14.83992201 15.51328567 16.04876377 17.95836705 18 21 C29.06614912 37.52017976 52.57637612 44.1849541 71 48 C90.97327766 51.67320429 110.93333387 52.23890028 131.1875 52.25 C132.29605347 52.25067474 133.40460693 52.25134949 134.54675293 52.25204468 C151.54171807 52.23563553 168.2072805 51.85936228 185 49 C185.96067383 48.83902832 186.92134766 48.67805664 187.91113281 48.51220703 C198.62010728 46.62078484 208.70911422 43.6442239 218.8125 39.625 C220.14643799 39.0988208 220.14643799 39.0988208 221.50732422 38.56201172 C227.05394368 36.22365878 231.49034274 33.34286334 236.09643555 29.46630859 C238 28 238 28 241 27 C241.711398 25.6899866 242.37050659 24.35128097 243 23 C247.90490331 16.33347649 253.39180264 10.0807284 259 4 C259.69609375 3.10087891 259.69609375 3.10087891 260.40625 2.18359375 C262 1 262 1 264.29296875 1.1875 C265.72576172 1.5896875 265.72576172 1.5896875 267.1875 2 C272.54607013 3.39762928 277.89453784 4.61538334 283.32568359 5.70043945 C334.62529182 15.99732639 334.62529182 15.99732639 345 30 C345.8125 33.5625 345.8125 33.5625 345 37 C341.47839298 41.96196412 337.86960064 44.72656544 332.5 47.5 C331.39229248 48.07572754 331.39229248 48.07572754 330.26220703 48.66308594 C321.24149701 53.1387387 311.75574566 55.66052527 302 58 C301.0419043 58.23203125 300.08380859 58.4640625 299.09667969 58.703125 C287.78974286 61.39971146 276.58375812 63.54724483 265.0078125 64.640625 C262.12295763 64.67096764 262.12295763 64.67096764 261 66 C251.85840219 67.39747991 242.54325914 67.93569962 233.3333149 68.78392792 C231.12751849 68.9881914 228.9221426 69.19655382 226.71678162 69.40545654 C199.03627831 71.99494534 171.4671779 72.50244777 143.67700195 72.44604492 C138.94993319 72.43688504 134.22336002 72.44373979 129.49633789 72.46655273 C37.16354114 72.90956796 37.16354114 72.90956796 -2.23022461 62.66674805 C-5.60336537 61.85475621 -8.92019615 61.47863516 -12.375 61.1875 C-29.28594904 59.3723302 -56.58098585 53.95657285 -68 40 C-68 39.34 -68 38.68 -68 38 C-68.66 38 -69.32 38 -70 38 C-70.84373552 35.30004632 -71.27015899 33.75873888 -71 31 C-67.63554532 24.78958537 -62.61451382 21.89520246 -56.13671875 19.59375 C-54 19 -54 19 -52 19 C-52 18.34 -52 17.68 -52 17 C-38.75302627 12.43119789 -25.58373288 8.1275561 -11.70825195 5.98803711 C-7.63100401 5.35185313 -3.87650057 4.41676148 0 3 C0 2.01 0 1.02 0 0 Z " fill="#CEBBAD" transform="translate(383,536)"/>
<path d="M0 0 C1.5428912 8.21988589 0.0900957 15.00514477 -1.875 23.0625 C-2.03271881 23.71995209 -2.19043762 24.37740417 -2.35293579 25.05477905 C-9.31486567 53.89531897 -21.31660258 82.08182448 -39 106 C-39.73476563 106.99644531 -40.46953125 107.99289062 -41.2265625 109.01953125 C-65.99572351 140.69993756 -99.4896637 157.45536515 -139.02734375 162.46484375 C-158.99583532 164.75396073 -179.16983764 161.51319177 -198.0625 155 C-198.78961182 154.75088867 -199.51672363 154.50177734 -200.26586914 154.24511719 C-203.94822805 152.92712031 -207.03934668 151.5838429 -210 149 C-208.35 149.33 -206.7 149.66 -205 150 C-205.33 148.02 -205.66 146.04 -206 144 C-207.485 144.99 -207.485 144.99 -209 146 C-209 144.35 -209 142.7 -209 141 C-208.42636719 141.09539062 -207.85273438 141.19078125 -207.26171875 141.2890625 C-187.32910963 143.89028311 -167.01466871 138.19095964 -149 130 C-147.87464844 129.52626953 -147.87464844 129.52626953 -146.7265625 129.04296875 C-109.8232354 113.38903036 -83.97642716 82.94414545 -68.73901367 46.41357422 C-65.69193117 38.70031907 -63.43042377 30.73971255 -61.2565918 22.74291992 C-60.98886963 21.76427979 -60.72114746 20.78563965 -60.4453125 19.77734375 C-60.21344238 18.90327881 -59.98157227 18.02921387 -59.74267578 17.12866211 C-59 15 -59 15 -57 13 C-52.2758544 11.11034176 -47.55862918 10.36335744 -42.5625 9.625 C-35.32558168 8.49367585 -28.41297403 6.90060319 -21.359375 4.91015625 C-17.5837661 3.88722965 -13.8094647 3.13491078 -9.953125 2.4921875 C-0.05227835 -0.00282586 -0.05227835 -0.00282586 0 0 Z " fill="#E3C5AC" transform="translate(656,398)"/>
<path d="M0 0 C8.53662074 5.26528798 13.16252009 11.6685842 16.453125 21.0703125 C19.09982955 33.89664991 16.96038325 47.1768587 9.796875 58.1328125 C3.87009327 65.96063742 -4.25557024 69.74445599 -13.859375 71.3203125 C-22.75768667 72.14273221 -28.93915528 70.44045184 -36.421875 65.6953125 C-36.89625 65.2415625 -37.370625 64.7878125 -37.859375 64.3203125 C-37.859375 63.6603125 -37.859375 63.0003125 -37.859375 62.3203125 C-38.519375 62.3203125 -39.179375 62.3203125 -39.859375 62.3203125 C-39.859375 74.2003125 -39.859375 86.0803125 -39.859375 98.3203125 C-46.789375 98.3203125 -53.719375 98.3203125 -60.859375 98.3203125 C-60.859375 65.3203125 -60.859375 32.3203125 -60.859375 -1.6796875 C-53.929375 -1.6796875 -46.999375 -1.6796875 -39.859375 -1.6796875 C-39.529375 1.2903125 -39.199375 4.2603125 -38.859375 7.3203125 C-38.158125 6.5778125 -37.456875 5.8353125 -36.734375 5.0703125 C-27.11402101 -4.13176523 -12.10541542 -5.88800818 0 0 Z " fill="#3E1504" transform="translate(807.859375,679.6796875)"/>
<path d="M0 0 C-2.14113098 2.14113098 -3.48607613 2.70019576 -6.2890625 3.734375 C-7.14886719 4.06179688 -8.00867188 4.38921875 -8.89453125 4.7265625 C-10.68916827 5.39923045 -12.48599928 6.06607903 -14.28515625 6.7265625 C-21.17892599 9.36934496 -26.7654227 12.7654227 -32 18 C-30.88625 17.608125 -29.7725 17.21625 -28.625 16.8125 C-8.99965909 10.34160586 11.16893118 6.09452561 31.625 3.25 C32.86491699 3.07670166 32.86491699 3.07670166 34.12988281 2.89990234 C48.24810412 1.06191186 62.33319856 0.83882446 76.54589844 0.86962891 C79.52283704 0.87504152 82.49962815 0.86962346 85.4765625 0.86328125 C87.39062533 0.86394127 89.30468807 0.86522086 91.21875 0.8671875 C92.09801147 0.86516327 92.97727295 0.86313904 93.88317871 0.86105347 C98.68982302 0.87926486 103.24073365 1.24409297 108 2 C109.61935661 2.11116757 111.24089558 2.19570699 112.86328125 2.24609375 C114.17848755 2.29286255 114.17848755 2.29286255 115.52026367 2.34057617 C116.90242065 2.38855347 116.90242065 2.38855347 118.3125 2.4375 C143.62395935 3.51890025 167.83840252 8.29827781 192 16 C191.01 15.071875 191.01 15.071875 190 14.125 C188 12 188 12 188 10 C198.79844606 11.06214224 208.61622813 17.13918669 216 25 C217.66187464 28.32374928 217.70571825 31.43360243 217 35 C212.24240178 44.62670265 199.63379376 49.04404922 190.10546875 52.4375 C186.1098493 53.77275526 182.06859047 54.91047278 178 56 C177.19449707 56.21785156 176.38899414 56.43570313 175.55908203 56.66015625 C151.03798141 63.22035898 151.03798141 63.22035898 140 63 C140.66 62.67 141.32 62.34 142 62 C141.67 61.34 141.34 60.68 141 60 C140.34 60 139.68 60 139 60 C139 59.01 139 58.02 139 57 C137.081875 57.0309375 137.081875 57.0309375 135.125 57.0625 C131.25 57.125 131.25 57.125 129 56 C129 54.68 129 53.36 129 52 C130.258125 51.7525 131.51625 51.505 132.8125 51.25 C133.72386719 51.06308594 134.63523437 50.87617188 135.57421875 50.68359375 C138.15761025 50.16809374 140.73940935 49.68652809 143.33203125 49.22265625 C154.37650044 47.165611 163.88009134 43.8196065 174 39 C174.99 38.67 175.98 38.34 177 38 C177.49180012 34.55739916 177.20765475 33.28379483 175.125 30.4375 C146.28916682 7.94555012 79.75055551 12.28915284 45.1953125 16.30859375 C13.84536 18.92222607 13.84536 18.92222607 -11.8671875 34.3828125 C-13.33961072 36.54734249 -14.70982163 38.72321465 -16 41 C-24.86592323 39.40948802 -32.19762656 35.89120102 -39 30 C-39.84691406 29.28070313 -39.84691406 29.28070313 -40.7109375 28.546875 C-42.85541359 25.97350369 -42.18114887 23.20029678 -42 20 C-41.34 20 -40.68 20 -40 20 C-39.90976562 19.25621094 -39.81953125 18.51242187 -39.7265625 17.74609375 C-38.36294002 12.59218728 -34.26783572 9.90781874 -30 7 C-21.19491036 2.40080326 -9.91143497 -2.54139358 0 0 Z " fill="#863507" transform="translate(445,311)"/>
<path d="M0 0 C5.26651883 3.56099138 8.29061375 8.4347627 10.1953125 14.484375 C10.65355097 17.47498395 10.72011326 20.39959218 10.6953125 23.421875 C10.68886719 24.25307861 10.68242188 25.08428223 10.67578125 25.94067383 C10.43064033 34.39400374 8.44513714 41.72014962 5.1953125 49.484375 C4.92187012 50.14002441 4.64842773 50.79567383 4.36669922 51.47119141 C-3.09474148 68.77987586 -15.47338481 84.75529375 -29.875 96.859375 C-31.10277564 97.89329133 -32.3091261 98.95362021 -33.484375 100.046875 C-42.87588761 108.72880665 -55.08779573 118.27971629 -66.8046875 123.484375 C-67.4646875 123.154375 -68.1246875 122.824375 -68.8046875 122.484375 C-68.55823486 121.83178711 -68.31178223 121.17919922 -68.05786133 120.50683594 C-62.99979428 107.02652655 -58.42939306 93.68079864 -55.34790039 79.60473633 C-54.8046875 77.484375 -54.8046875 77.484375 -53.82006836 74.60644531 C-52.82718672 71.55355509 -52.16389878 68.60475735 -51.5859375 65.44921875 C-51.37582031 64.30904297 -51.16570313 63.16886719 -50.94921875 61.99414062 C-50.73652344 60.81529297 -50.52382813 59.63644531 -50.3046875 58.421875 C-50.09199219 57.27009766 -49.87929688 56.11832031 -49.66015625 54.93164062 C-46.71739863 39.7459546 -46.71739863 39.7459546 -45.7421875 24.359375 C-45.22228274 16.30085117 -41.59999531 11.8533013 -35.8046875 6.484375 C-24.87394032 -2.68063609 -13.26427816 -7.40138405 0 0 Z " fill="#FCF5F0" transform="translate(744.8046875,354.515625)"/>
<path d="M0 0 C0.91612061 0.00757324 1.83224121 0.01514648 2.77612305 0.02294922 C13.64946174 0.2865803 22.55332644 2.94495997 30.625 10.4375 C31.17929687 10.95054687 31.73359375 11.46359375 32.3046875 11.9921875 C39.4302563 19.40136103 41.22933631 28.50887168 41.09765625 38.51538086 C40.63242552 49.11581464 36.56842935 57.91677144 28.8125 65.12109375 C18.24244392 73.66664312 5.87651631 75.42063235 -7.375 74.4375 C-15.54831932 72.85000735 -22.30480677 70.18609359 -28.375 64.4375 C-28.98988281 63.87417969 -29.60476563 63.31085937 -30.23828125 62.73046875 C-37.50751059 55.336713 -40.61150952 46.12274898 -41 35.875 C-40.65144664 26.49310529 -37.66152642 17.83029549 -31.09375 10.9609375 C-21.90671029 2.81787958 -12.17088474 -0.14195422 0 0 Z " fill="#D96505" transform="translate(309.375,676.5625)"/>
<path d="M0 0 C1.5428912 8.21988589 0.0900957 15.00514477 -1.875 23.0625 C-2.03271881 23.71995209 -2.19043762 24.37740417 -2.35293579 25.05477905 C-9.31486567 53.89531897 -21.31660258 82.08182448 -39 106 C-39.73476563 106.99644531 -40.46953125 107.99289062 -41.2265625 109.01953125 C-65.99572351 140.69993756 -99.4896637 157.45536515 -139.02734375 162.46484375 C-158.99583532 164.75396073 -179.16983764 161.51319177 -198.0625 155 C-198.78961182 154.75088867 -199.51672363 154.50177734 -200.26586914 154.24511719 C-203.94822805 152.92712031 -207.03934668 151.5838429 -210 149 C-208.35 149.33 -206.7 149.66 -205 150 C-205 148.35 -205 146.7 -205 145 C-201.28400809 144.79913557 -200.22791555 144.8480563 -197 147 C-194.78757151 147.41782387 -194.78757151 147.41782387 -192.4375 147.5625 C-188.19178082 147.90410959 -188.19178082 147.90410959 -186 149 C-167.56436735 150.42659906 -149.85089568 148.69953513 -132 144 C-131.26652344 143.80776855 -130.53304687 143.61553711 -129.77734375 143.41748047 C-90.53467043 132.6756626 -59.05277837 103.6189612 -39 69 C-30.11130575 52.96895541 -25.37422864 36.36124435 -21.296875 18.5546875 C-20.9565625 17.11005127 -20.9565625 17.11005127 -20.609375 15.63623047 C-20.23852826 14.03190229 -19.88894035 12.42220702 -19.578125 10.80517578 C-18.85636774 7.4870009 -18.31250657 6.2150894 -15.46875 4.2578125 C-14.4890625 3.88398438 -13.509375 3.51015625 -12.5 3.125 C-11.5203125 2.73570312 -10.540625 2.34640625 -9.53125 1.9453125 C-8.6959375 1.63335937 -7.860625 1.32140625 -7 1 C-4.53721199 -0.231394 -2.7204945 -0.07159196 0 0 Z " fill="#D4AB8D" transform="translate(656,398)"/>
<path d="M0 0 C3.76692959 0.01068082 7.5333782 0.00007556 11.30029297 -0.01269531 C25.17106317 -0.01953427 38.77474709 0.50680311 52.53857422 2.26074219 C52.16357422 4.19824219 52.16357422 4.19824219 51.53857422 6.26074219 C49.01399405 7.52303227 47.17860883 7.43857133 44.35229492 7.51025391 C43.26547928 7.5405368 42.17866364 7.5708197 41.05891418 7.60202026 C39.27960762 7.64578293 39.27960762 7.64578293 37.46435547 7.69042969 C34.93244281 7.7642511 32.40054213 7.83848436 29.86865234 7.91308594 C25.89387797 8.02522919 21.91916916 8.1340146 17.9440918 8.23486328 C-3.13832866 8.78093646 -23.79172054 10.05480657 -44.33760071 15.07620239 C-48.76615531 16.11278881 -52.03097938 16.19648302 -56.46142578 15.26074219 C-67.69420557 16.86542501 -81.04587333 21.27852373 -88.46142578 30.26074219 C-89.99276956 32.9790101 -89.99276956 32.9790101 -90.46142578 35.26074219 C-91.12142578 35.26074219 -91.78142578 35.26074219 -92.46142578 35.26074219 C-92.46142578 39.01420225 -92.3340013 41.21191076 -89.89501953 44.14355469 C-67.84792947 64.07654022 -28.6426377 64.06248785 -0.46142578 67.26074219 C0.23518661 67.35135925 0.93179901 67.44197632 1.64952087 67.53533936 C8.66574935 68.36804158 15.60848265 68.32376851 22.66597939 68.21364594 C25.56786384 68.17098979 28.46981169 68.14800413 31.3718977 68.12361526 C36.75236355 68.07813613 42.13246632 68.0244661 47.51245117 67.93847656 C51.27816912 67.87904134 55.0434298 67.84411251 58.80956078 67.82529449 C60.23736035 67.81358124 61.66511652 67.79281365 63.09264565 67.76265717 C65.08510222 67.72157457 67.07817265 67.71455969 69.07104492 67.70898438 C70.20226273 67.69486511 71.33348053 67.68074585 72.49897766 67.66619873 C76.47277328 68.44347102 77.86651718 70.31520247 80.53857422 73.26074219 C83.40957104 74.06531082 83.40957104 74.06531082 86.35107422 74.07324219 C87.32689453 74.1209375 88.30271484 74.16863281 89.30810547 74.21777344 C90.04416016 74.23195313 90.78021484 74.24613281 91.53857422 74.26074219 C91.20857422 75.91074219 90.87857422 77.56074219 90.53857422 79.26074219 C89.26240234 79.39351563 87.98623047 79.52628906 86.67138672 79.66308594 C85.00209426 79.84126884 83.33282458 80.01966533 81.66357422 80.19824219 C80.82181641 80.28525391 79.98005859 80.37226563 79.11279297 80.46191406 C78.30712891 80.54892578 77.50146484 80.6359375 76.67138672 80.72558594 C75.92775879 80.80413818 75.18413086 80.88269043 74.41796875 80.96362305 C72.45411106 81.17711566 72.45411106 81.17711566 70.53857422 82.26074219 C67.93320657 82.50018642 65.35335958 82.67602443 62.74169922 82.80371094 C61.91140198 82.84513718 61.08110474 82.88656342 60.22564697 82.929245 C47.58774232 83.49942374 34.93728651 83.54846038 22.28857422 83.57324219 C21.29550011 83.57563086 21.29550011 83.57563086 20.28236389 83.57806778 C0.05444371 83.61929451 -19.54303661 83.03185363 -39.46142578 79.26074219 C-41.04577072 78.98303818 -42.63038039 78.70683736 -44.21533203 78.43261719 C-46.75552233 77.98107362 -49.27945686 77.4949138 -51.80908203 76.98339844 C-57.0280018 75.95077795 -62.2752622 75.10905733 -67.52709961 74.26245117 C-70.88043992 73.7162074 -74.1740475 73.11669763 -77.46142578 72.26074219 C-77.46142578 71.60074219 -77.46142578 70.94074219 -77.46142578 70.26074219 C-78.78142578 69.93074219 -80.10142578 69.60074219 -81.46142578 69.26074219 C-78.18433715 65.59040292 -74.7462037 63.5679303 -70.46142578 61.26074219 C-71.62875474 59.88996718 -71.62875474 59.88996718 -74.83642578 59.82324219 C-78.46142578 59.26074219 -78.46142578 59.26074219 -81.46142578 57.26074219 C-82.69892578 57.05449219 -83.93642578 56.84824219 -85.21142578 56.63574219 C-89.94734003 55.65428627 -93.95473878 53.7324796 -98.21142578 51.51074219 C-98.84918945 51.1876709 -99.48695313 50.86459961 -100.14404297 50.53173828 C-104.67243808 48.08963102 -107.4918027 45.48248246 -110.46142578 41.26074219 C-111.40443981 36.38850302 -111.40443981 36.38850302 -110.46142578 33.26074219 C-108.90402428 30.98867103 -107.21796281 29.08079234 -105.28564453 27.12011719 C-103.13830184 25.01319813 -103.13830184 25.01319813 -100.46142578 21.26074219 C-103.76142578 21.92074219 -107.06142578 22.58074219 -110.46142578 23.26074219 C-109.46142578 20.26074219 -109.46142578 20.26074219 -106.98876953 18.71777344 C-87.27644956 9.68742882 -64.61011421 4.88075943 -43.12451172 2.57714844 C-41.17955752 2.34606477 -39.24027654 2.06572114 -37.30615234 1.75683594 C-24.8980964 -0.10387758 -12.52677145 -0.04218314 0 0 Z " fill="#E68327" transform="translate(495.46142578125,295.7392578125)"/>
<path d="M0 0 C-0.64270983 5.9129304 -2.19003784 11.34244531 -4 17 C-5.77111844 16.52188823 -7.54188483 16.0424722 -9.3125 15.5625 C-10.29863281 15.29566406 -11.28476562 15.02882813 -12.30078125 14.75390625 C-14.21517526 14.21920575 -16.11433615 13.62855462 -18 13 C-28.41511006 12.04780269 -40.52756559 10.96241335 -49 18 C-55.56412827 23.89745899 -60.01641134 31.17640496 -60.53125 40.12109375 C-60.54802676 41.89318037 -60.53703955 43.66572109 -60.5 45.4375 C-60.48791504 46.36256348 -60.47583008 47.28762695 -60.46337891 48.24072266 C-60.19304713 57.51228352 -58.11937109 64.63486461 -51.7109375 71.53125 C-43.48967796 78.5887696 -33.48978832 78.62908691 -23.19335938 78.19677734 C-17.86868445 77.71907387 -12.9641092 75.87609093 -8 74 C-6.02 73.34 -4.04 72.68 -2 72 C-2 78.27 -2 84.54 -2 91 C-4.3925 91.804375 -6.785 92.60875 -9.25 93.4375 C-9.99668945 93.68943115 -10.74337891 93.9413623 -11.51269531 94.20092773 C-27.94832389 99.70231014 -44.82871561 98.11128751 -60.3125 90.625 C-71.54709981 85.01410523 -79.53433767 75.80966627 -84 64 C-88.26464738 49.68186981 -87.2092093 34.80910929 -80.75 21.40625 C-73.94864079 8.88556599 -63.0628563 0.17293697 -49.6875 -4.375 C-35.1742014 -8.12545067 -12.93317564 -8.62211709 0 0 Z " fill="#411706" transform="translate(647,654)"/>
<path d="M0 0 C5.28597757 5.19916319 7.48964932 10.84634167 7.64250183 18.20370483 C7.64059341 19.03109161 7.638685 19.85847839 7.63671875 20.7109375 C7.65088333 21.58271637 7.66504791 22.45449524 7.67964172 23.35269165 C7.72124685 26.11025657 7.73673423 28.86716657 7.75 31.625 C7.77907258 34.40395441 7.8135657 37.18274508 7.85249329 39.96157837 C7.8749601 41.6843013 7.89079204 43.40712613 7.89933777 45.12997437 C7.82243113 49.32370944 7.82243113 49.32370944 9.0625 53.25 C10.95783342 53.71523063 10.95783342 53.71523063 13.125 53.875 C15.0740625 54.060625 15.0740625 54.060625 17.0625 54.25 C17.0625 57.55 17.0625 60.85 17.0625 64.25 C8.88276399 67.75560115 2.45585384 68.29065943 -5.94921875 65.2421875 C-8.8212528 63.80899172 -10.32417878 61.98563163 -11.9375 59.25 C-11.9375 58.59 -11.9375 57.93 -11.9375 57.25 C-12.43378906 57.64832031 -12.93007813 58.04664063 -13.44140625 58.45703125 C-22.90828551 65.84011925 -31.90193831 68.30790287 -43.9375 67.25 C-51.8840228 65.32765165 -56.90175913 60.18053215 -61.1015625 53.359375 C-63.11336037 48.2828757 -62.85063021 42.04037759 -61.16796875 36.8984375 C-57.3697506 29.94622195 -50.48255084 26.51179776 -43.25 23.9375 C-36.59322218 22.5559046 -30.26981834 22.11658329 -23.5 22.1875 C-22.67306641 22.19201172 -21.84613281 22.19652344 -20.99414062 22.20117188 C-18.97522854 22.21284189 -16.95635426 22.23077282 -14.9375 22.25 C-15.06382812 20.98027344 -15.19015625 19.71054687 -15.3203125 18.40234375 C-15.39137207 17.68812256 -15.46243164 16.97390137 -15.53564453 16.23803711 C-16.13302897 13.28268993 -17.55693035 12.00041886 -19.9375 10.25 C-28.1298211 7.5192263 -37.46855124 8.92323206 -45.53515625 11.49609375 C-47.98552805 12.26507222 -50.41328705 12.7865527 -52.9375 13.25 C-53.07027344 12.50234375 -53.20304687 11.7546875 -53.33984375 10.984375 C-53.51644531 9.99953125 -53.69304687 9.0146875 -53.875 8 C-54.04902344 7.02546875 -54.22304688 6.0509375 -54.40234375 5.046875 C-54.84129729 2.75278205 -55.34098592 0.50708029 -55.9375 -1.75 C-54.10766859 -2.40568959 -52.2734079 -3.04902213 -50.4375 -3.6875 C-49.4165625 -4.04714844 -48.395625 -4.40679688 -47.34375 -4.77734375 C-32.62110716 -8.98140117 -12.55450048 -9.5927916 0 0 Z " fill="#D66407" transform="translate(495.9375,683.75)"/>
<path d="M0 0 C0.515625 0.66 1.03125 1.32 1.5625 2 C2.366875 2.99 3.17125 3.98 4 5 C4.43957031 5.59296875 4.87914062 6.1859375 5.33203125 6.796875 C20.98592367 26.6119287 49.97525212 32.29393411 73.609375 35.421875 C88.44472276 37.12022595 103.27372493 37.24182693 118.1875 37.25 C119.29605347 37.25067474 120.40460693 37.25134949 121.54675293 37.25204468 C138.54171807 37.23563553 155.2072805 36.85936228 172 34 C172.96067383 33.83902832 173.92134766 33.67805664 174.91113281 33.51220703 C185.62010728 31.62078484 195.70911422 28.6442239 205.8125 24.625 C206.70179199 24.27421387 207.59108398 23.92342773 208.50732422 23.56201172 C214.05394368 21.22365878 218.49034274 18.34286334 223.09643555 14.46630859 C225 13 225 13 228 12 C228.70674629 10.68747118 229.36184656 9.34721283 230 8 C231.6102976 5.62532063 233.29944634 3.31067596 235 1 C235.33 1.66 235.66 2.32 236 3 C238.33939104 3.42480745 240.69919586 3.73922161 243.0625 4 C248.5118607 4.63973285 253.72048906 5.4915683 259 7 C259.35408433 11.42605411 259.42658529 14.98432073 257.6875 19.125 C249.81315538 27.5487175 238.46438973 33.1662262 227 34 C227 34.66 227 35.32 227 36 C226.06148193 36.17390259 226.06148193 36.17390259 225.10400391 36.35131836 C222.27708033 36.87693387 219.45104062 37.40715861 216.625 37.9375 C215.64015625 38.11990234 214.6553125 38.30230469 213.640625 38.49023438 C212.22910156 38.75610352 212.22910156 38.75610352 210.7890625 39.02734375 C209.91975098 39.18968506 209.05043945 39.35202637 208.15478516 39.51928711 C205.96537634 39.9165899 205.96537634 39.9165899 204 41 C201.21265458 41.28186639 198.42483852 41.4461153 195.62890625 41.62109375 C192.64617925 41.93253026 189.81506092 42.38989321 186.87548828 42.95410156 C164.80771959 46.9972916 142.25650785 46.27975647 119.91589355 46.19561768 C116.23510332 46.18466637 112.55434937 46.18515299 108.87354565 46.18575573 C105.32120206 46.18548483 101.7688826 46.18002104 98.21654701 46.17275429 C96.52401218 46.16957617 94.83147465 46.16760222 93.138937 46.16686058 C90.7972474 46.16470325 88.45567766 46.15598034 86.11401367 46.14526367 C85.41862991 46.14571686 84.72324615 46.14617004 84.00679016 46.14663696 C79.22901595 46.11450797 79.22901595 46.11450797 77 45 C74.71166781 44.729512 72.41714982 44.51071139 70.12109375 44.31640625 C68.71027871 44.19214519 67.29947168 44.0677932 65.88867188 43.94335938 C63.67293368 43.75279759 61.45705398 43.56414526 59.2409668 43.37768555 C44.5504366 42.13132637 44.5504366 42.13132637 37.84545898 40.45288086 C33.99503592 39.50797614 30.03701379 39.09907881 26.11328125 38.5625 C22.93043016 37.98743029 20.0626809 37.0262597 17 36 C15.0482561 35.6486861 13.08915651 35.33602312 11.125 35.0625 C6.05345118 34.24631708 1.66594597 33.12398637 -3 31 C-3.98355469 30.56558594 -4.96710938 30.13117187 -5.98046875 29.68359375 C-16.84015378 24.61750439 -16.84015378 24.61750439 -20 19 C-20.07453991 15.34754434 -19.29509386 13.49575769 -17.4375 10.375 C-13.43219222 6.47239242 -8.83060944 4.59910854 -3.5625 2.875 C-0.84914167 2.28322227 -0.84914167 2.28322227 0 0 Z " fill="#AE9483" transform="translate(396,551)"/>
<path d="M0 0 C8.25 0 16.5 0 25 0 C27.42732877 6.19070824 29.85047812 12.38272551 32.26318359 18.57910156 C33.08530393 20.68681946 33.90983497 22.79359871 34.73681641 24.89941406 C35.92464082 27.9253005 37.10377319 30.95444949 38.28125 33.984375 C38.65310425 34.92617615 39.0249585 35.86797729 39.40808105 36.83831787 C39.74843384 37.71892883 40.08878662 38.59953979 40.43945312 39.50683594 C40.7414563 40.27960876 41.04345947 41.05238159 41.35461426 41.84857178 C42 44 42 44 42 48 C42.66 48 43.32 48 44 48 C44.11102051 46.83992432 44.22204102 45.67984863 44.33642578 44.48461914 C44.88229144 40.14870764 46.0827915 36.32224413 47.6171875 32.24609375 C47.87501007 31.54154556 48.13283264 30.83699738 48.39846802 30.11109924 C49.21607612 27.88356077 50.04552349 25.66064214 50.875 23.4375 C51.42391414 21.94363 51.97209727 20.44949117 52.51953125 18.95507812 C53.05143919 17.51017938 53.58397052 16.06550993 54.1171875 14.62109375 C54.36105194 13.96048447 54.60491638 13.29987518 54.85617065 12.61924744 C56.45179033 8.34484204 58.19872751 4.20296915 60 0 C67.26 0 74.52 0 82 0 C81.22902117 3.08391531 80.37995786 5.70616377 79.1875 8.62109375 C78.83042969 9.50007324 78.47335937 10.37905273 78.10546875 11.28466797 C77.74066406 12.18072754 77.37585938 13.07678711 77 14 C76.33162697 15.67770663 75.66492813 17.35608132 75 19.03515625 C74.33333333 20.7109375 73.66666667 22.38671875 73 24.0625 C72.67 24.89587891 72.34 25.72925781 72 26.58789062 C69.79545495 32.12078202 67.44156708 37.56820616 65 43 C63.94768886 45.39142268 62.91043411 47.78865397 61.875 50.1875 C61.37742187 51.33605469 60.87984375 52.48460937 60.3671875 53.66796875 C59.10198851 56.75143942 58.05230949 59.83915959 57 63 C49.20343954 83.74510732 49.20343954 83.74510732 42 91 C41.28070313 91.74056641 41.28070313 91.74056641 40.546875 92.49609375 C33.71033523 98.82552755 25.02567141 101.14797894 15.9375 101.125 C14.40416016 101.12886719 14.40416016 101.12886719 12.83984375 101.1328125 C10 101 10 101 6 100 C6 95.05 6 90.1 6 85 C8.02125 84.896875 10.0425 84.79375 12.125 84.6875 C18.53760128 84.1792265 22.71295665 83.41410131 27.25 78.625 C30.31995526 74.07909009 30.31995526 74.07909009 30.73925781 68.77758789 C29.82438322 65.34016113 28.39893252 62.24881351 26.859375 59.05859375 C26.54051834 58.38620163 26.22166168 57.71380951 25.8931427 57.02104187 C25.20690966 55.57547761 24.51817313 54.13109963 23.82717896 52.68780518 C22.74151694 50.41977827 21.66261572 48.14865336 20.58569336 45.87646484 C19.11406234 42.77178503 17.6405081 39.66803113 16.16552734 36.56494141 C13.22319495 30.36872012 10.3074027 24.16024953 7.41052246 17.94265747 C6.57647508 16.15495429 5.73798154 14.36932761 4.89941406 12.58374023 C4.39764648 11.50680908 3.89587891 10.42987793 3.37890625 9.3203125 C2.9413501 8.38461426 2.50379395 7.44891602 2.05297852 6.48486328 C1 4 1 4 0 0 Z " fill="#D96708" transform="translate(351,678)"/>
<path d="M0 0 C7.26 0 14.52 0 22 0 C22 23.43 22 46.86 22 71 C15.4 71 8.8 71 2 71 C1.505 66.545 1.505 66.545 1 62 C0.32517578 62.68835938 0.32517578 62.68835938 -0.36328125 63.390625 C-7.0837756 69.80135708 -14.21628524 73.09077308 -23.5625 73.5 C-31.31460575 73.14612356 -37.60611417 70.94360839 -42.9375 65.1875 C-49.85492406 56.39830237 -50.1551785 47.06522733 -50.09765625 36.25390625 C-50.0962413 35.24279282 -50.09482635 34.23167938 -50.09336853 33.18992615 C-50.08779961 29.98075319 -50.07525287 26.77165164 -50.0625 23.5625 C-50.05748098 21.37825622 -50.05291878 19.19401134 -50.04882812 17.00976562 C-50.03869399 11.67312786 -50.01911253 6.33664327 -50 1 C-42.74 1 -35.48 1 -28 1 C-27.96261719 4.16722656 -27.92523437 7.33445312 -27.88671875 10.59765625 C-27.84045337 13.67902369 -27.78923787 16.76027207 -27.73754883 19.84155273 C-27.70437883 21.97624422 -27.67632242 24.11102173 -27.65356445 26.24584961 C-27.61987283 29.32182331 -27.56754897 32.39701426 -27.51171875 35.47265625 C-27.50532883 36.42084732 -27.4989389 37.36903839 -27.49235535 38.34596252 C-27.35194957 44.73280009 -26.61845121 49.87800048 -22.375 54.9375 C-17.51816274 57.11029562 -12.65071567 56.52947484 -7.6875 54.9375 C-4.29316103 52.49041842 -2.49369402 49.84922267 -1 46 C-0.42448601 42.41478089 -0.39521763 38.87999338 -0.390625 35.25390625 C-0.37408875 34.24279282 -0.35755249 33.23167938 -0.34051514 32.18992615 C-0.29217827 28.98072141 -0.27069552 25.77199009 -0.25 22.5625 C-0.22182843 20.37823158 -0.19189934 18.19398507 -0.16015625 16.00976562 C-0.0831344 10.6729623 -0.04248019 5.33763564 0 0 Z " fill="#431705" transform="translate(708,678)"/>
<path d="M0 0 C-0.5620902 3.83982099 -1.62007206 6.37099098 -3.8125 9.5625 C-4.31394531 10.30628906 -4.81539062 11.05007813 -5.33203125 11.81640625 C-9.91350745 17.81417017 -9.91350745 17.81417017 -13.65499878 18.45410156 C-14.66845367 18.4331543 -15.68190857 18.41220703 -16.72607422 18.390625 C-17.88578735 18.37759338 -19.04550049 18.36456177 -20.24035645 18.35113525 C-22.12845032 18.3010733 -22.12845032 18.3010733 -24.0546875 18.25 C-26.06528296 18.22430224 -28.07587952 18.19864519 -30.08649826 18.17483902 C-32.21949723 18.14695975 -34.35221113 18.11046569 -36.48504639 18.07214355 C-43.81245275 17.94520788 -51.14034889 17.90655289 -58.46875 17.890625 C-59.19210918 17.88891548 -59.91546837 17.88720596 -60.66074753 17.88544464 C-77.00005598 17.86614948 -93.0372993 19.09959251 -109.20214844 21.44873047 C-112.80032757 21.97101695 -116.40182898 22.44538275 -120.0078125 22.91015625 C-138.74665778 25.44310637 -158.42809093 28.97303844 -176.24047852 35.45239258 C-178 36 -178 36 -180.875 36.125 C-183.62597267 34.6686027 -184.45891426 32.85695811 -185.49609375 29.9765625 C-186.29136844 26.85711295 -186.36787108 24.18821606 -186 21 C-183.09826598 17.36104795 -179.19720895 16.6208846 -174.875 15.4375 C-173.72475342 15.11108521 -173.72475342 15.11108521 -172.55126953 14.77807617 C-167.40029367 13.33377008 -162.23611136 12.09789432 -157 11 C-155.98292969 10.70222656 -154.96585937 10.40445312 -153.91796875 10.09765625 C-113.89209048 -1.46455211 -40.92119857 -13.64039952 0 0 Z " fill="#C65F0F" transform="translate(563,269)"/>
<path d="M0 0 C8.25 0 16.5 0 25 0 C25 27.39 25 54.78 25 83 C38.2 83 51.4 83 65 83 C65 88.61 65 94.22 65 100 C43.55 100 22.1 100 0 100 C0 67 0 34 0 0 Z " fill="#DC6807" transform="translate(199,649)"/>
<path d="M0 0 C7.26 0 14.52 0 22 0 C22 34.98 22 69.96 22 106 C14.74 106 7.48 106 0 106 C0 71.02 0 36.04 0 0 Z " fill="#D96303" transform="translate(524,643)"/>
<path d="M0 0 C0.99 0 1.98 0 3 0 C3.29390625 1.57587891 3.29390625 1.57587891 3.59375 3.18359375 C5.42388857 12.12442785 7.32899503 19.31086561 15 25 C19.49398753 27.70094467 24.20035765 29.90352701 29 32 C28.67 32.99 28.34 33.98 28 35 C25.4159432 35.78386037 22.94885635 36.40275633 20.3125 36.9375 C13.20893879 38.37889595 7.41806435 40.40276522 3.0625 46.625 C2.5675 47.3159375 2.0725 48.006875 1.5625 48.71875 C0.46865322 50.31576629 -0.61376292 51.92064437 -1.6875 53.53125 C-5.32754632 58.92631865 -8.84849624 63.00495627 -14 67 C-13.9278125 66.40574219 -13.855625 65.81148438 -13.78125 65.19921875 C-13.47548257 62.46854575 -13.2266754 59.73838504 -13 57 C-12.92007813 56.06542969 -12.84015625 55.13085938 -12.7578125 54.16796875 C-12.48748035 48.48304266 -12.93585743 44.45248084 -16.3203125 39.77734375 C-21.44672615 34.3528828 -28.3388082 31.14892703 -35 28 C-35 27.01 -35 26.02 -35 25 C-34.03320312 24.85304687 -33.06640625 24.70609375 -32.0703125 24.5546875 C-21.96753625 22.87587631 -13.2740888 20.52298065 -6.625 12.125 C-4.00712794 8.27256328 -1.95929445 4.22001881 0 0 Z " fill="#F99D14" transform="translate(589,203)"/>
<path d="M0 0 C5.49302694 5.44157001 7.16086743 9.21750974 7.3125 17.0625 C7.33823986 24.96844927 6.22234837 31.69502731 0.5625 37.5 C-4.45787244 40.4387546 -8.09940776 41.60006023 -14 41 C-19.82120194 39.08140161 -23.07858497 36.50574371 -26 31 C-29.22679383 24.3125867 -29.21372186 15.55835313 -27.3125 8.41796875 C-24.98377403 3.34328673 -21.31286527 -0.56442505 -16.125 -2.8125 C-9.8009774 -3.37050199 -5.42071617 -3.65309133 0 0 Z " fill="#FDF5EE" transform="translate(320,695)"/>
<path d="M0 0 C4.36985569 3.49588455 7.84957914 7.75698663 8.48828125 13.4140625 C8.52704897 23.20937198 7.40738126 31.03528767 0.6875 38.47265625 C-2.29834444 41.01528941 -5.67634269 41.02714058 -9.4375 41.1875 C-10.41976562 41.24808594 -11.40203125 41.30867187 -12.4140625 41.37109375 C-17.57493996 40.4278989 -21.40048004 38.84702924 -24.8125 34.75 C-26.13311119 29.89062302 -26.02574957 25.2568629 -25.875 20.25 C-25.90142578 18.94417969 -25.92785156 17.63835938 -25.95507812 16.29296875 C-25.84626713 7.02984105 -25.84626713 7.02984105 -23.04223633 3.55834961 C-21.02332201 2.02824201 -19.08896364 0.85062316 -16.8125 -0.25 C-15.6059375 -0.9615625 -15.6059375 -0.9615625 -14.375 -1.6875 C-9.39611251 -2.78042652 -4.62950807 -2.05755914 0 0 Z " fill="#FBF5F0" transform="translate(793.8125,694.25)"/>
<path d="M0 0 C0.99 0.33 1.98 0.66 3 1 C5.06618749 0.90731495 5.06618749 0.90731495 7.1875 0.5625 C8.445625 0.376875 9.70375 0.19125 11 0 C9.58799744 3.22335938 7.8565646 5.2786476 5.375 7.75 C2.87961652 10.54753847 1.47748901 12.39275277 1.3125 16.1875 C2.09397488 20.52113342 3.00056095 21.84912347 6 25 C8.35307702 26.5276814 10.58288254 27.85263886 13.0625 29.125 C13.72137207 29.47119385 14.38024414 29.8173877 15.05908203 30.17407227 C19.90593358 32.63977734 24.70149808 34.34207406 30.0234375 35.52734375 C32 36 32 36 33 37 C34.51165654 37.39148761 36.03469632 37.73972457 37.5625 38.0625 C38.38878906 38.23910156 39.21507812 38.41570312 40.06640625 38.59765625 C40.70449219 38.73042969 41.34257812 38.86320312 42 39 C38.72291137 42.67033927 35.28477792 44.69281189 31 47 C31.99 47.99 32.98 48.98 34 50 C16.30270371 47.77095123 -1.58509457 41.24558149 -13.25 27.3125 C-16.26693387 23.32583739 -16.62642933 19.91010047 -16 15 C-12.78294412 8.14627225 -6.13903393 4.09268929 0 0 Z " fill="#FDC87E" transform="translate(384,317)"/>
<path d="M0 0 C0.66 0 1.32 0 2 0 C2.44730469 0.96421875 2.89460938 1.9284375 3.35546875 2.921875 C3.96549123 4.19822973 4.57620513 5.47425417 5.1875 6.75 C5.62545898 7.70132813 5.62545898 7.70132813 6.07226562 8.671875 C8.95472885 14.62276682 12.68358359 17.6886618 18.8125 20.25 C19.60269531 20.58515625 20.39289063 20.9203125 21.20703125 21.265625 C21.79871094 21.50796875 22.39039063 21.7503125 23 22 C23 22.66 23 23.32 23 24 C22.19175781 24.30292969 21.38351562 24.60585937 20.55078125 24.91796875 C10.77236237 28.75148641 6.30557158 32.54278382 2 42 C1.33798311 43.33564811 0.67258595 44.66964277 0 46 C-2 45 -2 45 -2.67578125 43.14453125 C-2.88589844 42.37496094 -3.09601563 41.60539062 -3.3125 40.8125 C-4.7616319 36.40936847 -6.17510283 32.7992695 -10 30 C-14.57670555 27.73765123 -19.23243055 25.81928902 -24 24 C-24 23.01 -24 22.02 -24 21 C-23.19175781 20.76925781 -22.38351562 20.53851563 -21.55078125 20.30078125 C-11.4704678 17.22440091 -7.10636659 13.01228911 -2 4 C-1.32318899 2.67178726 -0.65350457 1.33983357 0 0 Z " fill="#FBA113" transform="translate(467,186)"/>
<path d="M0 0 C0.66 0 1.32 0 2 0 C2.36351562 0.88751953 2.36351562 0.88751953 2.734375 1.79296875 C4.70298736 6.43435096 6.712887 10.12590254 10 14 C10 14.66 10 15.32 10 16 C10.69867188 16.18175781 11.39734375 16.36351562 12.1171875 16.55078125 C13.02726562 16.80214844 13.93734375 17.05351562 14.875 17.3125 C15.77992188 17.55613281 16.68484375 17.79976563 17.6171875 18.05078125 C20 19 20 19 22 22 C21.67 22.66 21.34 23.32 21 24 C19.63453967 24.26371551 18.25600742 24.46115166 16.875 24.625 C11.92441806 25.64980199 9.54277363 27.71051309 6.44140625 31.625 C4.08635451 35.50541045 2.94929172 39.58805372 2 44 C1.34 44 0.68 44 0 44 C-0.98163422 42.06374902 -1.96022454 40.12595461 -2.9375 38.1875 C-3.48277344 37.10855469 -4.02804687 36.02960938 -4.58984375 34.91796875 C-6 32 -6 32 -7 29 C-8.7294709 27.88325313 -8.7294709 27.88325313 -11 27 C-11.99515625 26.57460938 -12.9903125 26.14921875 -14.015625 25.7109375 C-15.08296875 25.27007812 -16.1503125 24.82921875 -17.25 24.375 C-18.32765625 23.92898438 -19.4053125 23.48296875 -20.515625 23.0234375 C-21.33546875 22.68570312 -22.1553125 22.34796875 -23 22 C-22.505 20.515 -22.505 20.515 -22 19 C-19.48828125 18.078125 -19.48828125 18.078125 -16.3125 17.25 C-9.24459046 15.03656214 -6.28960805 12.11121446 -2.7578125 5.76953125 C-1.78445189 3.87315627 -0.88462021 1.9393597 0 0 Z " fill="#F9A218" transform="translate(297,364)"/>
<path d="M0 0 C0.66 0 1.32 0 2 0 C2.36351562 0.80824219 2.72703125 1.61648437 3.1015625 2.44921875 C7.53936053 11.88238431 11.22322988 16.28482736 21 20 C21 20.66 21 21.32 21 22 C20.33613281 22.23074219 19.67226563 22.46148437 18.98828125 22.69921875 C11.41184247 25.49752388 6.8324432 28.7001082 3 36 C2.30177383 37.65369357 1.62501395 39.31727014 1 41 C-1.61570918 38.65276537 -3.04803514 36.21602544 -4.6875 33.125 C-8.44441218 26.74568872 -12.98125527 23.7718545 -20 21.6875 C-20.99 21.460625 -21.98 21.23375 -23 21 C-23 20.34 -23 19.68 -23 19 C-21.91332031 18.63648438 -21.91332031 18.63648438 -20.8046875 18.265625 C-9.65137171 14.39914219 -5.18231212 10.65865613 0 0 Z " fill="#FBA319" transform="translate(395,222)"/>
<path d="M0 0 C1.76946616 2.30778263 3.32664094 4.55191056 4.8125 7.0625 C7.29166017 10.39165794 9.21152732 11.42146971 13 13 C14.33713182 13.65901497 15.67127995 14.32418549 17 15 C16.43410156 15.40992188 15.86820312 15.81984375 15.28515625 16.2421875 C14.55167969 16.78101563 13.81820312 17.31984375 13.0625 17.875 C12.33160156 18.40867187 11.60070312 18.94234375 10.84765625 19.4921875 C8.88901765 20.88012104 8.88901765 20.88012104 8 23 C7.90367103 24.81041793 7.87018467 26.62452753 7.875 28.4375 C7.87242187 29.40558594 7.86984375 30.37367188 7.8671875 31.37109375 C7.88786027 34.11017829 7.88786027 34.11017829 9 37 C5.43292434 35.50904253 3.40059064 33.46294274 0.8125 30.625 C-5.23278698 24.4407409 -11.77652375 22.09961096 -20 20 C-19.505 18.515 -19.505 18.515 -19 17 C-17.109375 16.2265625 -17.109375 16.2265625 -14.75 15.625 C-7.29649597 13.31347027 -4.42965959 8.41655794 -0.91796875 1.79296875 C-0.46357422 0.90544922 -0.46357422 0.90544922 0 0 Z " fill="#F89913" transform="translate(363,265)"/>
<path d="M0 0 C1.03930664 0.01353516 1.03930664 0.01353516 2.09960938 0.02734375 C3.79572395 0.05073843 5.49165871 0.08660359 7.1875 0.125 C7.32276139 2.37334496 7.41960804 4.62402514 7.5 6.875 C7.55800781 8.12796875 7.61601562 9.3809375 7.67578125 10.671875 C7.1875 14.125 7.1875 14.125 4.85546875 16.453125 C3.97503906 17.00484375 3.09460938 17.5565625 2.1875 18.125 C1.1975 18.785 0.2075 19.445 -0.8125 20.125 C-5.98568721 20.81369056 -10.40894131 20.96713522 -14.9375 18.25 C-17.13048855 15.76461298 -17.73942992 14.66084728 -18.1875 11.375 C-17.67724888 6.95282362 -15.95762961 5.20023784 -12.8125 2.125 C-8.61313133 -0.10966404 -4.64739448 -0.11562895 0 0 Z " fill="#FCF2E9" transform="translate(473.8125,716.875)"/>
<path d="M0 0 C2.49724313 2.24038384 3.72908643 4.34535054 5.125 7.375 C7.90847934 12.62507026 11.6658634 14.68737868 17 17 C17 17.66 17 18.32 17 19 C16.40832031 19.21914062 15.81664062 19.43828125 15.20703125 19.6640625 C7.4440801 22.77937405 4.09452208 26.67296049 0 34 C-2.48193056 31.99081812 -3.12645647 30.65224471 -4.25 27.5625 C-6.54983816 22.88068661 -8.35384009 22.20081259 -13 20 C-13.804375 19.5875 -14.60875 19.175 -15.4375 18.75 C-15.953125 18.5025 -16.46875 18.255 -17 18 C-17 17.34 -17 16.68 -17 16 C-16.33613281 15.8040625 -15.67226563 15.608125 -14.98828125 15.40625 C-9.0482237 13.39443489 -5.90662311 11.58893763 -2.9375 6 C-2.628125 5.34 -2.31875 4.68 -2 4 C-1 2 -1 2 0 0 Z " fill="#F89B13" transform="translate(536,186)"/>
<path d="M0 0 C10.01462369 -0.68281525 18.46055319 1.38836461 28 4 C30.99347209 4.70480197 33.99286262 5.35561342 37 6 C37 7.32 37 8.64 37 10 C29.21830757 10.3176201 21.68461636 9.11463406 14 8 C12.63939468 7.80678562 11.278718 7.61407307 9.91796875 7.421875 C6.61124526 6.95283621 3.30533076 6.4787382 0 6 C0 4.02 0 2.04 0 0 Z " fill="#E1AF83" transform="translate(564,299)"/>
<path d="M0 0 C0.8353125 0.433125 0.8353125 0.433125 1.6875 0.875 C4.08494645 2.0413253 6.51596939 3.0339881 9 4 C7.49225858 9.73677223 6.38686254 13.82313235 1 17 C0.34 17 -0.32 17 -1 17 C-1.45375 16.05125 -1.9075 15.1025 -2.375 14.125 C-3.80238254 10.99686321 -3.80238254 10.99686321 -6 9 C-6 5 -6 5 -4.6875 3.515625 C-3.125 2.34375 -1.5625 1.171875 0 0 Z " fill="#FB9616" transform="translate(646,242)"/>
<path d="M0 0 C2.64 1.32 5.28 2.64 8 4 C7.54356532 8.90667279 6.2542311 11.33899001 3 15 C2.67 15.66 2.34 16.32 2 17 C1.34 17 0.68 17 0 17 C-1.34331654 15.00669158 -2.67594012 13.00615134 -4 11 C-4.99 10.34 -5.98 9.68 -7 9 C-7 8.01 -7 7.02 -7 6 C-5.35666496 4.96210419 -3.68756133 3.96432076 -2 3 C-1.34 2.01 -0.68 1.02 0 0 Z " fill="#FB9712" transform="translate(310,435)"/>
<path d="M0 0 C3.82868919 1.45226142 5.2538953 3.33318013 7 7 C7 11 7 11 4.75 13.8125 C2 16 2 16 -0.3125 15.8125 C-0.869375 15.544375 -1.42625 15.27625 -2 15 C-2.33 13.68 -2.66 12.36 -3 11 C-4.32 10.67 -5.64 10.34 -7 10 C-7 8.68 -7 7.36 -7 6 C-4.625 4.4375 -4.625 4.4375 -2 3 C-1.34 2.01 -0.68 1.02 0 0 Z " fill="#FAA21D" transform="translate(301,317)"/>
<path d="M0 0 C2.25964485 1.05920852 4.07478713 2.35607514 6 3.9375 C5.49477778 8.31609255 2.82172778 10.75401224 0 13.9375 C-2.31 11.9575 -4.62 9.9775 -7 7.9375 C-6.01883848 4.01285394 -4.73168033 -0.14786501 0 0 Z " fill="#F89D18" transform="translate(507,235.0625)"/>
<path d="M0 0 C-1.5041341 4.3029659 -4.24847412 5.60553888 -8.125 7.75 C-9.76855469 8.67039062 -9.76855469 8.67039062 -11.4453125 9.609375 C-12.28835938 10.06828125 -13.13140625 10.5271875 -14 11 C-14 10.34 -14 9.68 -14 9 C-17.3 9.66 -20.6 10.32 -24 11 C-23 8 -23 8 -19.5078125 6.2109375 C-18.05153175 5.58795817 -16.59031714 4.97641712 -15.125 4.375 C-14.39152344 4.06304687 -13.65804688 3.75109375 -12.90234375 3.4296875 C-4.78640221 0 -4.78640221 0 0 0 Z " fill="#F69D42" transform="translate(409,308)"/>
<path d="M0 0 C7.47394574 -0.37369729 13.82140651 0.95938459 21 3 C21 3.99 21 4.98 21 6 C18.24968413 5.85888117 15.49984582 5.71228835 12.75 5.5625 C11.58404297 5.50352539 11.58404297 5.50352539 10.39453125 5.44335938 C9.64042969 5.40146484 8.88632812 5.35957031 8.109375 5.31640625 C7.41811523 5.27974854 6.72685547 5.24309082 6.01464844 5.20532227 C3.93371671 4.99324476 2.01427578 4.55491323 0 4 C0 2.68 0 1.36 0 0 Z " fill="#CD7024" transform="translate(565,300)"/>
<path d="M0 0 C2.46800047 1.15173355 4.04783565 2.04783565 6 4 C5.67028521 7.29714793 5.3773161 8.6226839 3 11 C0.54150788 10.76208141 -0.81202615 10.136119 -2.8125 8.6875 C-4 7 -4 7 -3.875 5 C-2.90943569 2.79299586 -1.80627247 1.57067171 0 0 Z " fill="#FCA725" transform="translate(438,241)"/>
<path d="M0 0 C-2.92903058 2.33364352 -5.88568203 4.04960836 -9.25 5.6875 C-10.58804687 6.34298828 -10.58804687 6.34298828 -11.953125 7.01171875 C-12.62859375 7.33785156 -13.3040625 7.66398437 -14 8 C-15 7 -15 7 -15.0625 4.4375 C-15.041875 3.633125 -15.02125 2.82875 -15 2 C-13.43883181 1.66048381 -11.87598662 1.32867456 -10.3125 1 C-9.44238281 0.814375 -8.57226562 0.62875 -7.67578125 0.4375 C-5.06287036 0.01027953 -2.64186962 -0.07616201 0 0 Z " fill="#FDEDCA" transform="translate(392,313)"/>
<path d="M0 0 C-2.31 1.32 -4.62 2.64 -7 4 C-6.01 4.99 -5.02 5.98 -4 7 C-7.375 6.6875 -7.375 6.6875 -11 6 C-11.66 5.01 -12.32 4.02 -13 3 C-11.5903653 2.29819469 -10.17192359 1.61406042 -8.75 0.9375 C-7.96109375 0.55464844 -7.1721875 0.17179687 -6.359375 -0.22265625 C-3.74006478 -1.08564091 -2.55144824 -0.93045933 0 0 Z " fill="#FCBB66" transform="translate(422,360)"/>
<path d="M0 0 C0.66 0.33 1.32 0.66 2 1 C1 4 1 4 -1.72265625 5.60546875 C-2.82480469 6.12753906 -3.92695313 6.64960938 -5.0625 7.1875 C-6.16722656 7.71730469 -7.27195312 8.24710937 -8.41015625 8.79296875 C-9.26480469 9.19128906 -10.11945313 9.58960938 -11 10 C-9.54144353 6.31353859 -7.69770955 4.83856029 -4.375 2.75 C-3.55773437 2.22921875 -2.74046875 1.7084375 -1.8984375 1.171875 C-1.27195312 0.78515625 -0.64546875 0.3984375 0 0 Z " fill="#F8BA69" transform="translate(384,317)"/>
<path d="M0 0 C3.22290201 0.0289309 5.44294723 0.35779815 8.1875 2.1875 C8.1875 2.8475 8.1875 3.5075 8.1875 4.1875 C6.58254433 4.07307539 4.97851881 3.94555306 3.375 3.8125 C2.48167969 3.74289062 1.58835937 3.67328125 0.66796875 3.6015625 C-1.8125 3.1875 -1.8125 3.1875 -4.8125 1.1875 C-3.8125 0.1875 -3.8125 0.1875 0 0 Z " fill="#C46B2B" transform="translate(591.8125,303.8125)"/>
<path d="M0 0 C0.680625 0.19078125 1.36125 0.3815625 2.0625 0.578125 C3.0834375 0.84882813 3.0834375 0.84882813 4.125 1.125 C6.0625 1.828125 6.0625 1.828125 9.0625 3.828125 C3.40514585 5.38389739 0.26583134 4.07094023 -4.9375 1.828125 C-1.9375 -0.171875 -1.9375 -0.171875 0 0 Z " fill="#D1AC91" transform="translate(628.9375,317.171875)"/>
<path d="M0 0 C0 0.66 0 1.32 0 2 C-0.99 2.33 -1.98 2.66 -3 3 C-4.58558381 4.63502936 -4.58558381 4.63502936 -6.0625 6.5625 C-7.59765625 8.50390625 -7.59765625 8.50390625 -9 10 C-9.66 10 -10.32 10 -11 10 C-11 10.66 -11 11.32 -11 12 C-11.66 12 -12.32 12 -13 12 C-11.06425605 7.24862848 -5.56568385 0 0 0 Z " fill="#F4C391" transform="translate(363,315)"/>
<path d="M0 0 C0.66 0.33 1.32 0.66 2 1 C-2.29 5.29 -6.58 9.58 -11 14 C-11 9.40845608 -8.09282279 7.18698368 -5 4 C-3.3719908 2.61973133 -1.71956118 1.26438322 0 0 Z " fill="#E47F2A" transform="translate(342,306)"/>
<path d="M0 0 C0.66 0.66 1.32 1.32 2 2 C1.67257812 2.55171875 1.34515625 3.1034375 1.0078125 3.671875 C-0.16787715 6.38780923 -0.20248638 8.30551759 -0.125 11.25 C-0.10695313 12.14203125 -0.08890625 13.0340625 -0.0703125 13.953125 C-0.04710937 14.62859375 -0.02390625 15.3040625 0 16 C-0.66 15.67 -1.32 15.34 -2 15 C-3.2799919 10.42860035 -3.34030776 6.84337141 -1.5625 2.4375 C-1.046875 1.633125 -0.53125 0.82875 0 0 Z " fill="#F1B176" transform="translate(349,327)"/>
<path d="M0 0 C0.66 0.33 1.32 0.66 2 1 C-0.97 3.97 -3.94 6.94 -7 10 C-7.66 9.67 -8.32 9.34 -9 9 C-6.21000549 5.51250686 -3.74764169 2.49842779 0 0 Z " fill="#DB7321" transform="translate(284,683)"/>
<path d="M0 0 C0.33 0 0.66 0 1 0 C1.37239784 6.57902853 1.37239784 6.57902853 -0.4375 8.625 C-0.953125 9.07875 -1.46875 9.5325 -2 10 C-2.72197162 12.60611077 -2.72197162 12.60611077 -3 15 C-3.33 15 -3.66 15 -4 15 C-4.33 12.69 -4.66 10.38 -5 8 C-4.360625 7.608125 -3.72125 7.21625 -3.0625 6.8125 C-0.56221181 4.61527704 -0.35049575 3.24208567 0 0 Z " fill="#E1C8B4" transform="translate(666,329)"/>
<path d="M0 0 C1.051875 1.2684375 1.051875 1.2684375 2.125 2.5625 C-1.505 1.5725 -5.135 0.5825 -8.875 -0.4375 C-8.875 -0.7675 -8.875 -1.0975 -8.875 -1.4375 C-4.60386331 -2.72877388 -3.51475976 -2.97990501 0 0 Z " fill="#DFC5AB" transform="translate(635.875,325.4375)"/>
<path d="M0 0 C-1.74440798 0.55941359 -3.49585257 1.09691897 -5.25 1.625 C-6.22453125 1.92664063 -7.1990625 2.22828125 -8.203125 2.5390625 C-11.31678461 3.05220752 -12.41569255 2.71056541 -15 1 C-13.25215171 0.63536268 -11.50159498 0.2836922 -9.75 -0.0625 C-8.28820312 -0.35833984 -8.28820312 -0.35833984 -6.796875 -0.66015625 C-4.131881 -0.98397535 -2.51128277 -0.85503199 0 0 Z " fill="#F2B469" transform="translate(449,300)"/>
<path d="M0 0 C0.33 0 0.66 0 1 0 C1.3125 2.6875 1.3125 2.6875 1 6 C-1.5 8.875 -1.5 8.875 -4 11 C-4.66 10.67 -5.32 10.34 -6 10 C-5.38125 9.278125 -4.7625 8.55625 -4.125 7.8125 C-2.16333647 5.21618062 -1.04684 3.05328334 0 0 Z " fill="#654638" transform="translate(800,722)"/>
<path d="M0 0 C0.66 0.33 1.32 0.66 2 1 C-0.64 3.64 -3.28 6.28 -6 9 C-6.33 8.34 -6.66 7.68 -7 7 C-4.66666667 4.66666667 -2.33333333 2.33333333 0 0 Z " fill="#DD7324" transform="translate(443,712)"/>
<path d="M0 0 C0 0.99 0 1.98 0 3 C-3.3 2.67 -6.6 2.34 -10 2 C-10 1.67 -10 1.34 -10 1 C-6.59437148 0.22157062 -3.49234244 -0.09978121 0 0 Z " fill="#C5681F" transform="translate(586,303)"/>
<path d="M0 0 C2.97 0 5.94 0 9 0 C6.64031256 2.09749995 5.45383006 2.96905704 2.25 3.1875 C1.13625 3.0946875 1.13625 3.0946875 0 3 C0 2.01 0 1.02 0 0 Z " fill="#D1752C" transform="translate(565,300)"/>
<path d="M0 0 C0.33 0 0.66 0 1 0 C1 1.65 1 3.3 1 5 C1.99 5.33 2.98 5.66 4 6 C2.35 7.32 0.7 8.64 -1 10 C-0.67 6.7 -0.34 3.4 0 0 Z " fill="#F6A62E" transform="translate(576,260)"/>
<path d="M0 0 C0.99 0.33 1.98 0.66 3 1 C1.7191375 4.64553172 0.83328987 6.16671013 -2 9 C-1.34 6.03 -0.68 3.06 0 0 Z " fill="#71381C" transform="translate(752,395)"/>
<path d="M0 0 C0.66 0.33 1.32 0.66 2 1 C-0.31 3.64 -2.62 6.28 -5 9 C-5.33 8.01 -5.66 7.02 -6 6 C-4 4 -2 2 0 0 Z " fill="#B45411" transform="translate(439,339)"/>
<path d="M0 0 C0.33 0 0.66 0 1 0 C1.06058594 0.61488281 1.12117188 1.22976563 1.18359375 1.86328125 C1.26738281 2.67152344 1.35117187 3.47976563 1.4375 4.3125 C1.51871094 5.11300781 1.59992188 5.91351563 1.68359375 6.73828125 C1.95265693 9.16087179 1.95265693 9.16087179 3 12 C-0.875 10.25 -0.875 10.25 -2 8 C-1.34 8 -0.68 8 0 8 C0 5.36 0 2.72 0 0 Z " fill="#F6A84A" transform="translate(369,290)"/>
<path d="M0 0 C2 0.25 2 0.25 4 1 C4.33 1.99 4.66 2.98 5 4 C4.01 4.495 4.01 4.495 3 5 C1.68 3.68 0.36 2.36 -1 1 C-0.67 0.67 -0.34 0.34 0 0 Z " fill="#E8D2BB" transform="translate(425,532)"/>
<path d="M0 0 C0.66 0.33 1.32 0.66 2 1 C0.4198632 3.15473199 -1.10646634 5.10646634 -3 7 C-3.99 6.67 -4.98 6.34 -6 6 C-4.02 4.02 -2.04 2.04 0 0 Z " fill="#F0DCCE" transform="translate(418,323)"/>
</svg>
